PathFileType	4	(X/Y/Z)	C:\Users\Basilio\Documents\Thesis Gigler\squatting_fais\c3dfiles\039\SJ_pre4\markers_experimental.trc
DataRate	CameraRate	NumFrames	NumMarkers	Units	OrigDataRate	OrigDataStartFrame	OrigNumFrames
200.000000	200.000000	4	63	mm	200.000000	0	1788
Frame#	Time	FHD			LBHD			RBHD			C7			T10			CLAV			LSHO			LUUPA			LMUPA			LDUPA			LLEP			LMEP			LRAD			LUL			LRFIN			RSHO			RUPA1			RMUPA			RDUPA			RLEP			RMEP			RRAD			RUL			RUFIN			LASI			RASI			USACR			LSACR			RSACR			LTHI1			LTHI2			LTHI3			LTHI4			LLFC			LMFC			LTIB1			LTIB2			LTIB3			LTIB4			LLMAL			LMMAL			LHEE			LMT1			LMT2			LMT5			RTHI			RTHI2			RTHI3			RTHI4			RLFC			RMFC			RTIB1			RTIB2			RTIB3			RTIB4			RLMAL			RMMAL			RHEE			RMT1			RMT2			RMT5			*61			*62			
		X1	Y1	Z1	X2	Y2	Z2	X3	Y3	Z3	X4	Y4	Z4	X5	Y5	Z5	X6	Y6	Z6	X7	Y7	Z7	X8	Y8	Z8	X9	Y9	Z9	X10	Y10	Z10	X11	Y11	Z11	X12	Y12	Z12	X13	Y13	Z13	X14	Y14	Z14	X15	Y15	Z15	X16	Y16	Z16	X17	Y17	Z17	X18	Y18	Z18	X19	Y19	Z19	X20	Y20	Z20	X21	Y21	Z21	X22	Y22	Z22	X23	Y23	Z23	X24	Y24	Z24	X25	Y25	Z25	X26	Y26	Z26	X27	Y27	Z27	X28	Y28	Z28	X29	Y29	Z29	X30	Y30	Z30	X31	Y31	Z31	X32	Y32	Z32	X33	Y33	Z33	X34	Y34	Z34	X35	Y35	Z35	X36	Y36	Z36	X37	Y37	Z37	X38	Y38	Z38	X39	Y39	Z39	X40	Y40	Z40	X41	Y41	Z41	X42	Y42	Z42	X43	Y43	Z43	X44	Y44	Z44	X45	Y45	Z45	X46	Y46	Z46	X47	Y47	Z47	X48	Y48	Z48	X49	Y49	Z49	X50	Y50	Z50	X51	Y51	Z51	X52	Y52	Z52	X53	Y53	Z53	X54	Y54	Z54	X55	Y55	Z55	X56	Y56	Z56	X57	Y57	Z57	X58	Y58	Z58	X59	Y59	Z59	X60	Y60	Z60	X61	Y61	Z61	X62	Y62	Z62	X63	Y63	Z63	

1	0	-238.7718963623047	1767.994384765625	-765.4209594726564	-259.7385864257813	1716.9091796875	-958.9392700195315	-340.7838439941407	1727.582885742188	-844.375427246094	-358.9355468750001	1571.089599609375	-896.4570312500002	-371.6923828125001	1254.458984375	-909.204528808594	-220.1182250976563	1496.361938476563	-870.0871582031252	-243.3274536132813	1553.6630859375	-1065.855346679688	-309.1972045898438	1416.40869140625	-1240.790649414063	-271.9638061523438	1381.711059570313	-1238.447631835938	-306.3609008789063	1361.39208984375	-1284.403198242188	-299.3049926757813	1295.9716796875	-1313.188232421875	-381.7706909179688	1280.424926757813	-1280.632446289063	-314.0249328613282	1052.510009765625	-1147.267456054688	-258.4195251464844	1035.207275390625	-1196.422485351563	-267.8376464843751	1060.7373046875	-1094.875244140625	-289.1007995605469	1536.054809570313	-687.1465454101564	-435.5599365234376	1411.344116210938	-566.5461425781251	-407.9481201171876	1373.5068359375	-548.7770996093751	-462.2968139648439	1358.660278320313	-528.8031616210939	-464.4930725097657	1293.746826171875	-499.7659606933595	-527.4104003906251	1281.168212890625	-563.4768676757814	-359.4622497558594	1096.40966796875	-694.6818237304689	-358.6659240722657	1047.863525390625	-635.6880493164064	-294.0567016601563	1074.999389648438	-724.9688720703126	-201.3350067138672	1059.968872070313	-1007.669189453125	-226.5708007812501	1046.493041992188	-786.9984130859377	-390.1328430175782	1128.102661132813	-911.0690917968752	-394.0738525390626	1098.097045898438	-941.498474121094	-402.9118041992189	1095.591430664063	-883.3537597656252	-274.6897583007813	789.7586059570315	-1100.482299804688	-241.8345947265626	711.8950195312501	-1103.4453125	-193.8673553466797	714.8522338867189	-1093.27099609375	-268.7682800292969	658.5236816406251	-1091.207763671875	-269.2449035644532	535.8828735351564	-1091.636474609375	-236.1349029541016	506.3073730468751	-979.734069824219	-220.8636016845704	384.4481506347657	-1078.613647460938	-281.7908325195313	354.8777465820313	-1123.783813476563	-263.8814086914063	335.6954040527344	-1091.455200195313	-253.0742187500001	260.1791992187501	-1067.367065429688	-328.7926940917969	100.0585250854492	-1099.433715820313	-301.6680297851563	94.71064758300783	-1016.271606445313	-391.291961669922	41.37054061889649	-1055.269287109375	-156.2152404785157	55.92050933837892	-1072.2255859375	-169.1581573486328	55.03716278076173	-1114.203247070313	-220.1042938232422	31.8304786682129	-1159.633666992188	-278.8462829589844	787.113220214844	-707.5979003906251	-234.9596252441407	737.5885009765626	-696.8658447265626	-202.8917541503907	743.6594238281251	-700.6104736328126	-253.5847778320313	654.3172607421876	-701.3134155273439	-269.9584960937501	515.2236938476564	-716.5529174804689	-219.1907806396485	495.1554260253907	-822.017517089844	-238.8852996826172	304.9687194824219	-703.7510375976564	-327.5999755859376	243.5173492431641	-699.0570678710939	-281.9275817871094	233.8097076416016	-692.0194702148439	-262.5220031738282	181.374252319336	-715.5387573242189	-333.5094299316407	92.24399566650392	-691.1109619140626	-293.8767089843751	99.28385925292972	-772.5888671875002	-393.0484008789064	40.58322143554688	-744.2555541992189	-160.5618743896485	52.0501174926758	-710.5332031250001	-172.6000671386719	57.27054977416994	-666.4000854492189	-232.1564941406251	30.72982978820801	-622.1841430664064	nan	nan	nan	nan	nan	nan	
2	0.005	-238.1193542480469	1767.867919921875	-765.5371704101564	-259.2207946777344	1717.055419921875	-958.0696411132815	-340.7284545898438	1727.665283203125	-843.5632934570315	-359.0884704589844	1571.080322265625	-896.3171386718752	-371.6923828125001	1254.458984375	-909.204528808594	-220.0915527343751	1496.434448242188	-870.2932128906252	-243.3538818359376	1553.429931640625	-1065.86474609375	-309.6312561035157	1416.449096679688	-1240.797485351563	-272.4005737304688	1381.8134765625	-1238.514526367188	-306.7488708496094	1361.444213867188	-1284.4140625	-300.0039367675782	1296.03857421875	-1313.123168945313	-382.2642211914063	1280.5185546875	-1280.591552734375	-314.1545410156251	1052.56298828125	-1147.38720703125	-258.6005554199219	1035.287231445313	-1196.56787109375	-267.9701538085938	1060.770141601563	-1095.005126953125	-288.9325561523438	1535.990478515625	-687.0443725585939	-434.9940490722657	1411.237060546875	-566.3613891601564	-407.4424438476564	1373.43505859375	-548.6473388671876	-461.736053466797	1358.568359375	-528.5082397460939	-463.9927978515626	1293.690307617188	-499.513153076172	-527.0166625976564	1281.060791015625	-563.1747436523439	-359.1890258789063	1096.401611328125	-694.6920776367189	-358.2413940429688	1047.77978515625	-635.7124023437501	-293.7639770507813	1074.970092773438	-725.0830078125001	-201.383041381836	1059.957397460938	-1007.780090332031	-226.4485168457032	1046.48779296875	-787.1774902343752	-390.0667114257814	1128.113891601563	-911.053894042969	-394.0936584472657	1098.107421875	-941.475524902344	-402.8215637207032	1095.608276367188	-883.3625488281252	-274.7416687011719	789.7151489257815	-1100.600952148438	-241.8406677246094	711.9044799804689	-1103.539428710938	-193.870101928711	714.8784179687501	-1093.421142578125	-268.7692565917969	658.4886474609376	-1091.295532226563	-269.2667236328126	535.8858642578126	-1091.701293945313	-236.055160522461	506.3011169433595	-979.8265380859377	-220.8823394775391	384.4612426757814	-1078.741821289063	-281.7677001953126	354.9008178710938	-1123.833984375	-263.8814086914063	335.6954040527344	-1091.455200195313	-253.0608825683594	260.1664123535157	-1067.452026367188	-328.8665161132813	100.0514907836914	-1099.454711914063	-301.7115783691407	94.70606994628908	-1016.321533203125	-391.291961669922	41.37054443359376	-1055.269287109375	-156.1787872314453	55.93423461914064	-1072.237426757813	-169.1417694091797	55.04008102416994	-1114.228393554688	-220.1232452392579	31.85187149047852	-1159.638061523438	-278.6374816894532	787.0972900390627	-707.7424316406251	-234.8633270263672	737.5701904296876	-696.9102783203126	-202.7419891357422	743.6785888671876	-700.7093505859376	-253.8470153808594	653.9434204101564	-701.7399902343751	-269.9013671875001	515.2064819335939	-716.6358032226564	-219.2050933837891	495.1129150390626	-822.100280761719	-238.7996215820313	304.9537353515626	-703.7698974609376	-327.5614929199219	243.4859466552735	-699.0808105468751	-281.8688354492188	233.7990417480469	-692.0682983398439	-262.5370788574219	181.3648834228516	-715.5922241210939	-333.5390930175782	92.29178619384767	-691.1188964843751	-293.8883666992188	99.27542114257815	-772.5737915039065	-393.010711669922	40.5643653869629	-744.2510986328126	-160.5756072998047	52.02158355712892	-710.5908813476564	-172.62646484375	57.27436447143556	-666.3875732421876	-232.1648712158204	30.73955535888673	-622.2250366210939	nan	nan	nan	nan	nan	nan	
3	0.01	-237.2447662353516	1767.82275390625	-765.6027832031251	-260.0689697265626	1717.216430664063	-957.9868774414065	-340.5361633300782	1727.74951171875	-842.8469848632815	-359.2323913574219	1571.010986328125	-896.131774902344	-371.6201477050782	1254.432739257813	-909.159851074219	-220.1403503417969	1496.489624023438	-870.4221801757815	-243.6763916015626	1553.501586914063	-1065.901611328125	-310.0788574218751	1416.09716796875	-1240.853149414063	-272.8346252441407	1381.890014648438	-1238.592651367188	-307.1638183593751	1361.520874023438	-1284.457397460938	-300.2964172363282	1296.166137695313	-1313.280883789063	-382.7075500488282	1280.560424804688	-1280.507202148438	-314.3133239746094	1052.593627929688	-1147.437133789063	-258.7482299804688	1035.466552734375	-1196.724975585938	-268.0753173828126	1060.800415039063	-1095.072875976563	-288.6639099121094	1535.962036132813	-686.9882812500001	-434.4580078125001	1411.109008789063	-566.1375122070314	-406.8623657226564	1373.29833984375	-548.5466308593751	-461.1933898925782	1358.470947265625	-528.2564086914064	-463.3753051757814	1293.597412109375	-499.2988586425782	-526.4574584960939	1280.94873046875	-562.8372192382814	-358.8999633789063	1096.330932617188	-694.6762084960939	-357.7382812500001	1047.672485351563	-635.7955932617189	-293.4266052246094	1074.940795898438	-725.1738891601564	-201.296371459961	1059.991821289063	-1007.911437988281	-226.2553405761719	1046.468505859375	-787.3746337890627	-390.057586669922	1128.09375	-911.0240478515627	-393.9998168945314	1098.127807617188	-941.4486083984377	-402.8069458007814	1095.607177734375	-883.332458496094	-274.8453979492188	789.7136230468752	-1100.69140625	-241.9404754638672	711.9057006835939	-1103.649169921875	-193.9390716552735	714.8695068359376	-1093.602783203125	-268.8206481933594	658.4855346679689	-1091.393798828125	-269.2692871093751	535.8832397460939	-1091.78515625	-235.9911346435547	506.3255310058595	-979.9285278320315	-220.5928955078126	385.2948303222657	-1078.61962890625	-292.9239196777344	349.1455688476563	-1116.164184570313	-251.5193176269532	342.3809509277344	-1102.509033203125	-253.0569000244141	260.1459350585938	-1067.532958984375	-328.8800048828126	100.036376953125	-1099.451171875	-301.6737365722657	94.70558166503908	-1016.304443359375	-391.2980957031251	41.35085678100587	-1055.262573242188	-156.2256011962891	55.94175338745119	-1072.261352539063	-169.1649169921875	55.0172805786133	-1114.222045898438	-220.1126708984376	31.82207489013673	-1159.656860351563	-278.4937744140626	787.114929199219	-707.7810668945314	-234.7773895263672	737.5447998046876	-697.0599365234376	-202.6564025878907	743.6479492187501	-700.8676147460939	-253.3236083984376	654.3002319335939	-701.5390625000001	-269.8586730957032	515.2260742187501	-716.6975708007814	-219.2829132080079	495.0889282226564	-822.1807861328127	-238.7786865234376	304.9378967285157	-703.8230590820314	-327.5386657714844	243.5003662109376	-699.0903320312501	-281.8534545898438	233.8086242675782	-692.1059570312501	-262.4855346679688	181.3479919433594	-715.6785278320314	-333.5198974609376	92.25280761718751	-691.1627807617189	-293.8861999511719	99.24710083007815	-772.6040649414065	-393.0431213378907	40.61055755615235	-744.2609252929689	-160.5642395019532	52.01191711425783	-710.5433959960939	-172.6177215576172	57.27544021606447	-666.3744506835939	-232.1648864746094	30.73948478698731	-622.2250976562501	nan	nan	nan	nan	nan	nan	
4	0.015	-236.2480621337891	1767.7578125	-765.7518310546876	-262.7338867187501	1717.279418945313	-958.8107910156252	-340.4566955566407	1727.853637695313	-842.1121215820315	-359.3937988281251	1570.965209960938	-895.9893188476565	-371.6240539550782	1254.4130859375	-909.1546630859377	-220.1158142089844	1496.592529296875	-870.5925292968752	-244.0967254638672	1553.57568359375	-1065.96826171875	-310.4889526367188	1416.178466796875	-1240.879516601563	-273.2345581054688	1381.98681640625	-1238.643188476563	-307.6231994628907	1361.571044921875	-1284.466064453125	-300.8943786621094	1296.257690429688	-1313.28759765625	-383.0769958496094	1280.533569335938	-1280.461791992188	-314.4737548828126	1052.625610351563	-1147.534057617188	-258.8826904296876	1035.57470703125	-1196.836181640625	-268.1952514648438	1060.835205078125	-1095.196899414063	-288.4260559082032	1535.96875	-686.8813476562501	-433.9773559570314	1411.008178710938	-565.8966674804689	-406.3401184082032	1373.193359375	-548.3919067382814	-460.6202392578126	1358.354125976563	-528.0270996093751	-462.7352294921876	1293.453979492188	-499.1185607910157	-525.9188842773439	1280.837280273438	-562.5015258789064	-358.6807861328126	1096.267211914063	-694.6854858398439	-357.3174743652344	1047.584106445313	-635.8265380859376	-293.1644897460938	1074.916381835938	-725.2763671875001	-201.2893829345704	1060.04150390625	-1008.054870605469	-226.0913085937501	1046.4462890625	-787.4761352539065	-389.9863281250001	1128.081909179688	-911.0032958984377	-393.9725036621095	1098.089233398438	-941.4505615234377	-402.7889099121095	1095.620483398438	-883.3357543945315	-274.9016113281251	789.7031860351565	-1100.784912109375	-241.9631042480469	711.9044189453126	-1103.759033203125	-193.9860839843751	714.8952026367189	-1093.7978515625	-268.8603515625001	658.4739990234376	-1091.447143554688	-269.2908630371094	535.8875732421876	-1091.856811523438	-236.6160278320313	505.9645080566407	-980.235534667969	-220.9389038085938	384.6519165039064	-1078.990112304688	-292.9001464843751	349.1313781738282	-1116.206665039063	-251.4383850097657	342.3736267089844	-1102.58056640625	-253.0459899902344	260.1439208984376	-1067.612426757813	-328.8761596679688	100.0225677490235	-1099.453735351563	-301.7312622070313	94.70755767822267	-1016.318359375	-391.291961669922	41.37054443359376	-1055.269287109375	-156.282455444336	55.90811920166017	-1072.343872070313	-169.2212677001953	55.04717254638673	-1114.241943359375	-220.1690826416016	31.82843399047852	-1159.672729492188	-278.3833923339844	787.1346435546877	-707.8660888671876	-234.6368408203126	737.5194702148439	-697.1632690429689	-202.4918060302735	743.6133422851564	-701.0248413085939	-253.1294860839844	654.3250732421876	-701.6191406250001	-269.8234863281251	515.2230224609376	-716.7384033203126	-219.2589721679688	495.0887145996095	-822.285583496094	-238.7447204589844	304.9287109375001	-703.8701171875001	-327.4660034179688	243.495590209961	-699.1420288085939	-281.8731384277344	233.8187408447266	-692.1209106445314	-262.4817199707032	181.3653564453125	-715.7235717773439	-333.5454711914063	92.25643157958986	-691.1273803710939	-293.9210510253907	99.2360534667969	-772.6234130859377	-393.0361633300782	40.56674194335938	-744.2297973632814	-160.5813140869141	52.0105438232422	-710.5969238281251	-172.6001739501953	57.27064895629884	-666.4000854492189	-232.1460723876954	30.73717498779298	-622.2207031250001	nan	nan	nan	nan	nan	nan	
